<!-- Generated by IcoMoon.io -->
<svg version="1.1" xmlns="http://www.w3.org/2000/svg" width="32" height="32" viewBox="0 0 32 32">
<path fill="none" stroke-linejoin="round" stroke-linecap="round" stroke-miterlimit="4" stroke-width="2.56" stroke="#000" d="M7.467 25.956h5.689M24.533 25.968v-0.013M1.778 7.467c0-4.708 0.981-5.689 5.689-5.689h17.067c4.708 0 5.689 0.981 5.689 5.689v17.067c0 4.708-0.981 5.689-5.689 5.689h-17.067c-4.708 0-5.689-0.981-5.689-5.689v-17.067z"></path>
<path fill="none" stroke-linejoin="round" stroke-linecap="round" stroke-miterlimit="4" stroke-width="2.56" stroke="#000" d="M16 18.844c3.142 0 5.689-2.547 5.689-5.689s-2.547-5.689-5.689-5.689-5.689 2.547-5.689 5.689c0 3.142 2.547 5.689 5.689 5.689z"></path>
<path fill="none" stroke-linejoin="round" stroke-linecap="round" stroke-miterlimit="4" stroke-width="2.56" stroke="#000" d="M20.978 13.156h2.133M16 18.133v2.133M11.022 13.156h-2.133M16 8.178v-2.133"></path>
</svg>
