<!-- Generated by IcoMoon.io -->
<svg version="1.1" xmlns="http://www.w3.org/2000/svg" width="32" height="32" viewBox="0 0 32 32">
<path d="M7.226 28.387c0 0.306-0.091 0.606-0.261 0.86s-0.412 0.453-0.695 0.57-0.594 0.148-0.895 0.088c-0.3-0.060-0.576-0.207-0.793-0.424s-0.364-0.492-0.424-0.793c-0.060-0.3-0.029-0.612 0.088-0.895s0.316-0.525 0.57-0.695c0.255-0.17 0.554-0.261 0.86-0.261 0.411 0 0.804 0.163 1.095 0.453s0.454 0.684 0.454 1.095zM9.806 22.71c-0.306 0-0.606 0.091-0.86 0.261s-0.453 0.412-0.57 0.695c-0.117 0.283-0.148 0.594-0.088 0.895s0.207 0.576 0.424 0.793c0.217 0.216 0.492 0.364 0.793 0.424s0.612 0.029 0.895-0.088c0.283-0.117 0.525-0.316 0.695-0.57s0.261-0.554 0.261-0.86c0-0.411-0.163-0.805-0.453-1.095s-0.684-0.453-1.095-0.453zM1.548 22.71c-0.306 0-0.606 0.091-0.86 0.261s-0.453 0.412-0.57 0.695c-0.117 0.283-0.148 0.594-0.088 0.895s0.207 0.576 0.424 0.793c0.217 0.216 0.492 0.364 0.793 0.424s0.612 0.029 0.895-0.088c0.283-0.117 0.525-0.316 0.695-0.57s0.261-0.554 0.261-0.86c0-0.411-0.163-0.805-0.454-1.095s-0.684-0.453-1.095-0.453zM5.677 18.581c-0.306 0-0.606 0.091-0.86 0.261s-0.453 0.412-0.57 0.695c-0.117 0.283-0.148 0.594-0.088 0.895s0.207 0.576 0.424 0.793c0.217 0.216 0.492 0.364 0.793 0.424s0.612 0.029 0.895-0.088c0.283-0.117 0.525-0.316 0.695-0.57s0.261-0.554 0.261-0.86c0-0.411-0.163-0.805-0.454-1.095s-0.684-0.453-1.095-0.453zM32 3.097c0 0.274-0.109 0.536-0.302 0.73s-0.456 0.302-0.73 0.302h-3.702l-3.593 3.595-2.795 16.36c-0.063 0.374-0.227 0.723-0.476 1.009s-0.571 0.499-0.932 0.614c-0.361 0.115-0.747 0.129-1.115 0.040s-0.705-0.278-0.973-0.546l-12.645-12.645c-0.268-0.268-0.458-0.605-0.547-0.974s-0.075-0.755 0.041-1.116c0.116-0.361 0.329-0.684 0.616-0.932s0.637-0.412 1.011-0.474l16.354-2.796 3.897-3.897c0.096-0.096 0.21-0.172 0.335-0.224s0.26-0.078 0.395-0.078h4.129c0.274 0 0.536 0.109 0.73 0.302s0.302 0.456 0.302 0.73zM21.447 8.489l-15.253 2.608 12.645 12.645 2.608-15.253z"></path>
</svg>
